<?xml version="1.0" encoding="UTF-8"?>
<svg version="1.1" xmlns="http://www.w3.org/2000/svg" width="400" height="300">
<defs>
  <linearGradient id="og" x1="0%" y1="0%" x2="0%" y2="100%">
    <stop offset="0%" stop-color="#FFB366"/>
    <stop offset="100%" stop-color="#FF6600"/>
  </linearGradient>
</defs>
<path d="M0 0 C3.7623822 2.65076928 6.54430848 4.838165 8.75 8.9375 C10.60328543 19.76950278 7.14252767 31.27819628 4.87579346 41.80377197 C4.17555536 45.05546732 3.49067672 48.31006283 2.81005859 51.56591797 C2.11876013 54.87258931 1.42673272 58.17907938 0.7300415 61.48461914 C-1.30873729 71.16068476 -3.24741671 80.85398815 -5.125 90.5625 C-5.3383902 91.66250336 -5.3383902 91.66250336 -5.55609131 92.784729 C-7.42263096 102.42112627 -9.21943357 112.06810336 -10.83349609 121.75048828 C-11.54361471 125.99111052 -12.29911755 130.21856868 -13.12719727 134.43774414 C-15.73376187 147.74453669 -17.8784937 161.08003655 -19.8125 174.5 C-20.04135895 176.06234375 -20.04135895 176.06234375 -20.27484131 177.65625 C-21.7534002 187.75119829 -23.22588856 197.83717823 -24.19140625 207.99609375 C-24.31378662 209.2812085 -24.43616699 210.56632324 -24.56225586 211.89038086 C-24.76273141 214.16415858 -24.94371942 216.43978879 -25.09985352 218.71704102 C-25.70381113 225.91942592 -27.24125206 231.37352945 -32.78149414 236.29907227 C-37.6403885 239.56681694 -42.62253045 239.50594956 -48.3125 239.375 C-49.18455078 239.38208984 -50.05660156 239.38917969 -50.95507812 239.39648438 C-56.86590129 239.33831579 -61.35908695 238.57434231 -65.89453125 234.4375 C-73.17838301 225.08298803 -70.81541377 211.13210455 -69.49609375 199.9140625 C-67.88783656 187.63800186 -65.78074748 175.80624345 -62.25 163.9375 C-61.47208742 160.98600815 -60.73380193 158.02522528 -60 155.0625 C-59.8246875 154.36479492 -59.649375 153.66708984 -59.46875 152.94824219 C-58.61197522 149.97872465 -58.61197522 149.97872465 -58.25 146.9375 C-58.66137207 147.39487549 -59.07274414 147.85225098 -59.49658203 148.32348633 C-66.55086823 156.11801298 -73.5631103 163.83368086 -81.875 170.3125 C-82.42945801 170.7453833 -82.98391602 171.1782666 -83.55517578 171.62426758 C-89.84304192 176.35972731 -94.76892496 178.5931586 -102.625 178.34765625 C-106.94941972 177.67196567 -108.40805923 176.27678041 -111.25 172.9375 C-112.3834774 170.64872392 -113.28957478 168.30785179 -114.25 165.9375 C-116.35222342 176.46995949 -118.32606618 186.97736057 -119.75 197.625 C-120.67637331 204.40552038 -121.76210198 211.11772285 -123.1875 217.8125 C-123.33316406 218.53139404 -123.47882813 219.25028809 -123.62890625 219.9909668 C-124.98871452 226.07913379 -127.08566497 231.7549112 -132.5 235.3125 C-138.18742503 238.55039049 -145.92799157 238.10123505 -152.29296875 238.140625 C-153.39020012 238.14917511 -153.39020012 238.14917511 -154.50959778 238.15789795 C-156.04145901 238.16726682 -157.57333966 238.17384922 -159.10522461 238.17773438 C-161.44224604 238.18751987 -163.7784155 238.21864974 -166.11523438 238.25 C-167.61197401 238.2565244 -169.10871984 238.26177708 -170.60546875 238.265625 C-171.29827438 238.2779718 -171.99108002 238.2903186 -172.70487976 238.30303955 C-177.08155488 238.28297125 -179.751217 237.57252711 -183.25 234.9375 C-187.73623087 230.20877017 -187.49360127 226.25717943 -187.39862061 220.10668945 C-187.18615384 215.57604297 -186.56083568 211.20985554 -185.7578125 206.75 C-185.49884689 205.25641968 -185.49884689 205.25641968 -185.23464966 203.73266602 C-182.32790774 187.32746756 -178.96571424 171.00224796 -175.67492676 154.67089844 C-174.93549619 150.99557563 -174.20043768 147.31938405 -173.46543694 143.64317322 C-172.75149058 140.07398615 -172.03553865 136.50520385 -171.31891251 132.93655396 C-170.97959407 131.24627736 -170.64072492 129.55591049 -170.30233383 127.865448 C-169.83092511 125.51277055 -169.3569823 123.1606175 -168.88232422 120.80859375 C-168.74618713 120.12700195 -168.61005005 119.44541016 -168.4697876 118.74316406 C-166.70812205 110.04902707 -165.14512642 103.42279708 -159.1875 96.5625 C-153.84186213 93.60533862 -148.30802989 94.2483665 -142.4765625 95.5625 C-129.7032222 99.66168084 -119.49184163 109.54755193 -110.25 118.9375 C-109.981875 118.28007812 -109.71375 117.62265625 -109.4375 116.9453125 C-91.26815707 72.83684184 -64.7423566 21.74514307 -18.9375 0.8125 C-12.38075043 -1.67606444 -6.69011864 -2.18715417 0 0 Z " fill="url(#og)" transform="translate(289.25,31.0625)"/>
</svg>
